<svg width="25" height="25" viewBox="0 0 64 64" xmlns="http://www.w3.org/2000/svg" xmlns:xlink="http://www.w3.org/1999/xlink"><linearGradient id="linear-gradient" gradientUnits="userSpaceOnUse" x1="1.03" x2="37.036" y1="13.999" y2="50.004"><stop offset="0" stop-color="#0575e6"></stop><stop offset="1" stop-color="#021b79"></stop></linearGradient><g id="Send_Button" data-name="Send Button"><path d="m10 57.979 16.103-25.63134a.667.667 0 0 0 0-.69532l-16.103-25.63134a1.74269 1.74269 0 0 1 2.64746-1.75049l40.22954 25.64849a2.48965 2.48965 0 0 1 0 4.1621l-40.22954 25.64839a1.741 1.741 0 0 1 -2.64746-1.75049zm2.82275-51.22509 14.97364 23.835a2.66687 2.66687 0 0 1 0 2.82226l-14.97412 23.835 38.97949-24.85164a.49171.49171 0 0 0 0-.78906z" fill="url(#linear-gradient)"></path></g></svg>