<svg width="66" height="21" viewBox="0 0 66 21" fill="none" xmlns="http://www.w3.org/2000/svg">
<path d="M28.3519 20.5957H23.0171L26.3507 0.363098H31.6855L28.3519 20.5957Z" fill="black"/>
<path d="M18.5267 0.363098L13.4386 14.2791L12.8355 11.2805L11.0426 2.18717C11.0426 2.18717 10.8232 0.363098 8.50946 0.363098H0.0986922L0 0.704097C0 0.704097 2.57148 1.23454 5.58159 3.01531L10.2201 20.5957H15.7798L24.2673 0.363098H18.5267Z" fill="black"/>
<path d="M60.4983 20.5957H65.4L61.1288 0.363098H56.8357C54.8564 0.363098 54.3739 1.87324 54.3739 1.87324L46.4182 20.6011H51.9779L53.0909 17.5971H59.8732L60.4983 20.5957ZM54.6261 13.4401L57.4279 5.86779L59.0069 13.4401H54.6261Z" fill="black"/>
<path d="M46.8352 5.22865L47.5973 0.882267C47.5973 0.882267 45.2451 0 42.7998 0C40.1515 0 33.8627 1.14208 33.8627 6.7009C33.8627 11.9295 41.2426 11.9945 41.2426 14.7387C41.2426 17.483 34.6248 16.9958 32.4371 15.2638L31.6421 19.805C31.6421 19.805 34.0271 20.9471 37.6678 20.9471C41.3084 20.9471 46.8023 19.0851 46.8023 14.0188C46.8023 8.75772 39.3565 8.26516 39.3565 5.98101C39.351 3.69145 44.5488 3.98373 46.8352 5.22865Z" fill="black"/>
<path d="M12.8355 11.2859L11.0426 2.18717C11.0426 2.18717 10.8232 0.363098 8.50946 0.363098H0.0986922L0 0.704097C0 0.704097 4.0409 1.53224 7.92279 4.62829C11.6292 7.59444 12.8355 11.2859 12.8355 11.2859Z" fill="black"/>
</svg>
